<mxfile host="app.diagrams.net" modified="2024-03-05T11:02:17.239Z" agent="Mozilla/5.0 (Windows NT 10.0; Win64; x64) AppleWebKit/537.36 (KHTML, like Gecko) Chrome/122.0.0.0 Safari/537.36" etag="IPve18YHDgUf0ZtIyQCy" version="23.1.7" type="github">
  <diagram name="第 1 页" id="RyY5nZNIsYxHvSIVB-sh">
    <mxGraphModel dx="1450" dy="1357" grid="0" gridSize="10" guides="1" tooltips="1" connect="1" arrows="1" fold="1" page="0" pageScale="1" pageWidth="827" pageHeight="1169" math="0" shadow="0">
      <root>
        <mxCell id="0" />
        <mxCell id="1" parent="0" />
        <mxCell id="ILP_Jjc2ablGNtknwulI-101" style="edgeStyle=none;curved=1;rounded=0;orthogonalLoop=1;jettySize=auto;html=1;exitX=1;exitY=0.5;exitDx=0;exitDy=0;entryX=0;entryY=0.5;entryDx=0;entryDy=0;fontSize=12;startSize=8;endSize=8;" parent="1" source="ILP_Jjc2ablGNtknwulI-99" target="ILP_Jjc2ablGNtknwulI-100" edge="1">
          <mxGeometry relative="1" as="geometry" />
        </mxCell>
        <mxCell id="ILP_Jjc2ablGNtknwulI-99" value="" style="rounded=0;whiteSpace=wrap;html=1;dashed=1;dashPattern=8 8;" parent="1" vertex="1">
          <mxGeometry x="272" y="191" width="250" height="126" as="geometry" />
        </mxCell>
        <mxCell id="ILP_Jjc2ablGNtknwulI-9" value="" style="rounded=1;whiteSpace=wrap;html=1;fillColor=#dae8fc;strokeColor=#6c8ebf;" parent="1" vertex="1">
          <mxGeometry x="-322" y="-48" width="120" height="287" as="geometry" />
        </mxCell>
        <mxCell id="ILP_Jjc2ablGNtknwulI-2" value="&lt;font face=&quot;Comic Sans MS&quot; style=&quot;font-size: 16px;&quot;&gt;packet 1&lt;/font&gt;" style="rounded=1;whiteSpace=wrap;html=1;" parent="1" vertex="1">
          <mxGeometry x="-309" y="-34" width="94" height="46" as="geometry" />
        </mxCell>
        <mxCell id="ILP_Jjc2ablGNtknwulI-5" value="&lt;font face=&quot;Comic Sans MS&quot; style=&quot;font-size: 16px;&quot;&gt;packet 2&lt;/font&gt;" style="rounded=1;whiteSpace=wrap;html=1;" parent="1" vertex="1">
          <mxGeometry x="-309" y="23" width="94" height="46" as="geometry" />
        </mxCell>
        <mxCell id="ILP_Jjc2ablGNtknwulI-6" value="&lt;font face=&quot;Comic Sans MS&quot; style=&quot;font-size: 16px;&quot;&gt;packet 3&lt;/font&gt;" style="rounded=1;whiteSpace=wrap;html=1;" parent="1" vertex="1">
          <mxGeometry x="-309" y="80" width="94" height="46" as="geometry" />
        </mxCell>
        <mxCell id="ILP_Jjc2ablGNtknwulI-7" value="&lt;font face=&quot;Comic Sans MS&quot; style=&quot;font-size: 16px;&quot;&gt;packet N&lt;/font&gt;" style="rounded=1;whiteSpace=wrap;html=1;" parent="1" vertex="1">
          <mxGeometry x="-309" y="168" width="94" height="46" as="geometry" />
        </mxCell>
        <mxCell id="ILP_Jjc2ablGNtknwulI-8" value="..." style="text;html=1;align=center;verticalAlign=middle;resizable=0;points=[];autosize=1;strokeColor=none;fillColor=none;fontSize=16;" parent="1" vertex="1">
          <mxGeometry x="-277.5" y="132" width="31" height="31" as="geometry" />
        </mxCell>
        <mxCell id="ILP_Jjc2ablGNtknwulI-10" style="edgeStyle=none;curved=1;rounded=0;orthogonalLoop=1;jettySize=auto;html=1;exitX=0.5;exitY=1;exitDx=0;exitDy=0;fontSize=12;startSize=8;endSize=8;" parent="1" source="ILP_Jjc2ablGNtknwulI-9" target="ILP_Jjc2ablGNtknwulI-9" edge="1">
          <mxGeometry relative="1" as="geometry" />
        </mxCell>
        <mxCell id="ILP_Jjc2ablGNtknwulI-11" value="&lt;font style=&quot;font-size: 16px;&quot; face=&quot;Comic Sans MS&quot;&gt;flows&lt;/font&gt;" style="text;html=1;align=center;verticalAlign=middle;resizable=0;points=[];autosize=1;strokeColor=none;fillColor=none;fontSize=16;" parent="1" vertex="1">
          <mxGeometry x="-286.5" y="240.5" width="58" height="32" as="geometry" />
        </mxCell>
        <mxCell id="ILP_Jjc2ablGNtknwulI-102" style="edgeStyle=none;curved=1;rounded=0;orthogonalLoop=1;jettySize=auto;html=1;exitX=1;exitY=0.5;exitDx=0;exitDy=0;fontSize=12;startSize=8;endSize=8;" parent="1" source="ILP_Jjc2ablGNtknwulI-22" edge="1">
          <mxGeometry relative="1" as="geometry">
            <mxPoint x="26.800048828125" y="-11" as="targetPoint" />
          </mxGeometry>
        </mxCell>
        <mxCell id="ILP_Jjc2ablGNtknwulI-22" value="&lt;font face=&quot;Comic Sans MS&quot; style=&quot;font-size: 16px;&quot;&gt;IP Header 1&lt;br&gt;IP Header 2&lt;br&gt;...&lt;br&gt;IP Header N&lt;br&gt;&lt;/font&gt;" style="rounded=1;whiteSpace=wrap;html=1;align=center;fillColor=#fff2cc;strokeColor=#d6b656;" parent="1" vertex="1">
          <mxGeometry x="-150" y="-63" width="128" height="104" as="geometry" />
        </mxCell>
        <mxCell id="ILP_Jjc2ablGNtknwulI-26" value="&lt;font face=&quot;Comic Sans MS&quot; style=&quot;font-size: 16px;&quot;&gt;Payload1 Line1&lt;br&gt;&lt;/font&gt;&lt;font face=&quot;Comic Sans MS&quot; style=&quot;font-size: 16px;&quot;&gt;Payload2 Line1&lt;br&gt;&lt;/font&gt;&lt;font face=&quot;Comic Sans MS&quot; style=&quot;font-size: 16px;&quot;&gt;...&lt;br&gt;PayloadN Line1&lt;br&gt;&lt;/font&gt;" style="rounded=1;whiteSpace=wrap;html=1;align=center;fillColor=#72E876;strokeColor=#82b366;" parent="1" vertex="1">
          <mxGeometry x="-164" y="56" width="132" height="103" as="geometry" />
        </mxCell>
        <mxCell id="ILP_Jjc2ablGNtknwulI-90" style="edgeStyle=none;curved=1;rounded=0;orthogonalLoop=1;jettySize=auto;html=1;exitX=1;exitY=0.5;exitDx=0;exitDy=0;fontSize=12;startSize=8;endSize=8;" parent="1" source="ILP_Jjc2ablGNtknwulI-41" edge="1">
          <mxGeometry relative="1" as="geometry">
            <mxPoint x="66.00006103515625" y="247" as="targetPoint" />
          </mxGeometry>
        </mxCell>
        <mxCell id="ILP_Jjc2ablGNtknwulI-41" value="" style="shape=table;startSize=0;container=1;collapsible=0;childLayout=tableLayout;fontSize=16;fontFamily=Comic Sans MS;fillColor=#e1d5e7;strokeColor=#9673a6;rounded=1;" parent="1" vertex="1">
          <mxGeometry x="-169" y="230" width="204" height="34" as="geometry" />
        </mxCell>
        <mxCell id="ILP_Jjc2ablGNtknwulI-42" value="" style="shape=tableRow;horizontal=0;startSize=0;swimlaneHead=0;swimlaneBody=0;strokeColor=#9673a6;top=0;left=0;bottom=0;right=0;collapsible=0;dropTarget=0;fillColor=#e1d5e7;points=[[0,0.5],[1,0.5]];portConstraint=eastwest;fontSize=16;fontFamily=Comic Sans MS;" parent="ILP_Jjc2ablGNtknwulI-41" vertex="1">
          <mxGeometry width="204" height="34" as="geometry" />
        </mxCell>
        <mxCell id="ILP_Jjc2ablGNtknwulI-43" value="1540" style="shape=partialRectangle;html=1;whiteSpace=wrap;connectable=0;strokeColor=#9673a6;overflow=hidden;fillColor=#e1d5e7;top=0;left=0;bottom=0;right=0;pointerEvents=1;fontSize=16;fontFamily=Comic Sans MS;" parent="ILP_Jjc2ablGNtknwulI-42" vertex="1">
          <mxGeometry width="41" height="34" as="geometry">
            <mxRectangle width="41" height="34" as="alternateBounds" />
          </mxGeometry>
        </mxCell>
        <mxCell id="ILP_Jjc2ablGNtknwulI-44" value="40" style="shape=partialRectangle;html=1;whiteSpace=wrap;connectable=0;strokeColor=#9673a6;overflow=hidden;fillColor=#e1d5e7;top=0;left=0;bottom=0;right=0;pointerEvents=1;fontSize=16;fontFamily=Comic Sans MS;" parent="ILP_Jjc2ablGNtknwulI-42" vertex="1">
          <mxGeometry x="41" width="41" height="34" as="geometry">
            <mxRectangle width="41" height="34" as="alternateBounds" />
          </mxGeometry>
        </mxCell>
        <mxCell id="ILP_Jjc2ablGNtknwulI-45" value="1200" style="shape=partialRectangle;html=1;whiteSpace=wrap;connectable=0;strokeColor=#9673a6;overflow=hidden;fillColor=#e1d5e7;top=0;left=0;bottom=0;right=0;pointerEvents=1;fontSize=16;fontFamily=Comic Sans MS;" parent="ILP_Jjc2ablGNtknwulI-42" vertex="1">
          <mxGeometry x="82" width="40" height="34" as="geometry">
            <mxRectangle width="40" height="34" as="alternateBounds" />
          </mxGeometry>
        </mxCell>
        <mxCell id="ILP_Jjc2ablGNtknwulI-46" value="...." style="shape=partialRectangle;html=1;whiteSpace=wrap;connectable=0;strokeColor=#9673a6;overflow=hidden;fillColor=#e1d5e7;top=0;left=0;bottom=0;right=0;pointerEvents=1;fontSize=16;fontFamily=Comic Sans MS;" parent="ILP_Jjc2ablGNtknwulI-42" vertex="1">
          <mxGeometry x="122" width="41" height="34" as="geometry">
            <mxRectangle width="41" height="34" as="alternateBounds" />
          </mxGeometry>
        </mxCell>
        <mxCell id="ILP_Jjc2ablGNtknwulI-47" value="40" style="shape=partialRectangle;html=1;whiteSpace=wrap;connectable=0;strokeColor=#9673a6;overflow=hidden;fillColor=#e1d5e7;top=0;left=0;bottom=0;right=0;pointerEvents=1;fontSize=16;fontFamily=Comic Sans MS;" parent="ILP_Jjc2ablGNtknwulI-42" vertex="1">
          <mxGeometry x="163" width="41" height="34" as="geometry">
            <mxRectangle width="41" height="34" as="alternateBounds" />
          </mxGeometry>
        </mxCell>
        <mxCell id="ILP_Jjc2ablGNtknwulI-50" value="&lt;font face=&quot;Comic Sans MS&quot; style=&quot;font-size: 16px;&quot;&gt;Payload1 Line1&lt;br&gt;&lt;/font&gt;&lt;font face=&quot;Comic Sans MS&quot; style=&quot;font-size: 16px;&quot;&gt;Payload2 Line1&lt;br&gt;&lt;/font&gt;&lt;font face=&quot;Comic Sans MS&quot; style=&quot;font-size: 16px;&quot;&gt;...&lt;br&gt;PayloadN Line1&lt;br&gt;&lt;/font&gt;" style="rounded=1;whiteSpace=wrap;html=1;align=center;fillColor=#B0E8AE;strokeColor=#82b366;" parent="1" vertex="1">
          <mxGeometry x="-154" y="66" width="132" height="103" as="geometry" />
        </mxCell>
        <mxCell id="ILP_Jjc2ablGNtknwulI-54" style="edgeStyle=none;curved=1;rounded=0;orthogonalLoop=1;jettySize=auto;html=1;exitX=1;exitY=0.5;exitDx=0;exitDy=0;fontSize=12;startSize=8;endSize=8;" parent="1" source="ILP_Jjc2ablGNtknwulI-51" edge="1">
          <mxGeometry relative="1" as="geometry">
            <mxPoint x="25.20001220703125" y="132" as="targetPoint" />
          </mxGeometry>
        </mxCell>
        <mxCell id="ILP_Jjc2ablGNtknwulI-51" value="&lt;font face=&quot;Comic Sans MS&quot; style=&quot;font-size: 16px;&quot;&gt;Payload1 Line1&lt;br&gt;&lt;/font&gt;&lt;font face=&quot;Comic Sans MS&quot; style=&quot;font-size: 16px;&quot;&gt;Payload2 Line1&lt;br&gt;&lt;/font&gt;&lt;font face=&quot;Comic Sans MS&quot; style=&quot;font-size: 16px;&quot;&gt;...&lt;br&gt;PayloadN Line1&lt;br&gt;&lt;/font&gt;" style="rounded=1;whiteSpace=wrap;html=1;align=center;fillColor=#d5e8d4;strokeColor=#82b366;" parent="1" vertex="1">
          <mxGeometry x="-143" y="80" width="132" height="103" as="geometry" />
        </mxCell>
        <mxCell id="ILP_Jjc2ablGNtknwulI-112" style="edgeStyle=none;curved=1;rounded=0;orthogonalLoop=1;jettySize=auto;html=1;exitX=1;exitY=0.5;exitDx=0;exitDy=0;entryX=0;entryY=0.25;entryDx=0;entryDy=0;fontSize=12;startSize=8;endSize=8;" parent="1" source="ILP_Jjc2ablGNtknwulI-52" target="ILP_Jjc2ablGNtknwulI-105" edge="1">
          <mxGeometry relative="1" as="geometry" />
        </mxCell>
        <mxCell id="ILP_Jjc2ablGNtknwulI-52" value="&lt;font face=&quot;Comic Sans MS&quot; style=&quot;font-size: 16px;&quot;&gt;Encoder&lt;br&gt;（Transformer)&lt;br&gt;&lt;/font&gt;" style="rounded=0;whiteSpace=wrap;html=1;fillColor=#dae8fc;strokeColor=#6c8ebf;" parent="1" vertex="1">
          <mxGeometry x="29" y="-63" width="111" height="101" as="geometry" />
        </mxCell>
        <mxCell id="ILP_Jjc2ablGNtknwulI-116" style="edgeStyle=none;curved=1;rounded=0;orthogonalLoop=1;jettySize=auto;html=1;exitX=1;exitY=0.5;exitDx=0;exitDy=0;fontSize=12;startSize=8;endSize=8;" parent="1" source="ILP_Jjc2ablGNtknwulI-53" edge="1">
          <mxGeometry relative="1" as="geometry">
            <mxPoint x="167.60003662109375" y="75.5999755859375" as="targetPoint" />
          </mxGeometry>
        </mxCell>
        <mxCell id="ILP_Jjc2ablGNtknwulI-53" value="&lt;font face=&quot;Comic Sans MS&quot; style=&quot;font-size: 16px;&quot;&gt;Encoder&lt;br&gt;（Transfomer)&lt;br&gt;&lt;/font&gt;" style="rounded=0;whiteSpace=wrap;html=1;fillColor=#dae8fc;strokeColor=#6c8ebf;" parent="1" vertex="1">
          <mxGeometry x="29" y="80" width="110" height="101" as="geometry" />
        </mxCell>
        <mxCell id="ILP_Jjc2ablGNtknwulI-117" style="edgeStyle=none;curved=1;rounded=0;orthogonalLoop=1;jettySize=auto;html=1;fontSize=12;startSize=8;endSize=8;" parent="1" source="ILP_Jjc2ablGNtknwulI-56" edge="1">
          <mxGeometry relative="1" as="geometry">
            <mxPoint x="338.800048828125" y="48.5" as="targetPoint" />
          </mxGeometry>
        </mxCell>
        <mxCell id="ILP_Jjc2ablGNtknwulI-56" value="" style="shape=table;startSize=0;container=1;collapsible=0;childLayout=tableLayout;fontSize=16;fontFamily=Comic Sans MS;fillColor=#d5e8d4;strokeColor=#82b366;rounded=1;" parent="1" vertex="1">
          <mxGeometry x="173" y="40" width="138" height="17" as="geometry" />
        </mxCell>
        <mxCell id="ILP_Jjc2ablGNtknwulI-57" value="" style="shape=tableRow;horizontal=0;startSize=0;swimlaneHead=0;swimlaneBody=0;strokeColor=#82b366;top=0;left=0;bottom=0;right=0;collapsible=0;dropTarget=0;fillColor=#d5e8d4;points=[[0,0.5],[1,0.5]];portConstraint=eastwest;fontSize=16;fontFamily=Comic Sans MS;" parent="ILP_Jjc2ablGNtknwulI-56" vertex="1">
          <mxGeometry width="138" height="17" as="geometry" />
        </mxCell>
        <mxCell id="ILP_Jjc2ablGNtknwulI-58" value="" style="shape=partialRectangle;html=1;whiteSpace=wrap;connectable=0;strokeColor=#82b366;overflow=hidden;fillColor=#d5e8d4;top=0;left=0;bottom=0;right=0;pointerEvents=1;fontSize=16;fontFamily=Comic Sans MS;" parent="ILP_Jjc2ablGNtknwulI-57" vertex="1">
          <mxGeometry width="28" height="17" as="geometry">
            <mxRectangle width="28" height="17" as="alternateBounds" />
          </mxGeometry>
        </mxCell>
        <mxCell id="ILP_Jjc2ablGNtknwulI-59" value="" style="shape=partialRectangle;html=1;whiteSpace=wrap;connectable=0;strokeColor=#82b366;overflow=hidden;fillColor=#d5e8d4;top=0;left=0;bottom=0;right=0;pointerEvents=1;fontSize=16;fontFamily=Comic Sans MS;" parent="ILP_Jjc2ablGNtknwulI-57" vertex="1">
          <mxGeometry x="28" width="27" height="17" as="geometry">
            <mxRectangle width="27" height="17" as="alternateBounds" />
          </mxGeometry>
        </mxCell>
        <mxCell id="ILP_Jjc2ablGNtknwulI-60" value="" style="shape=partialRectangle;html=1;whiteSpace=wrap;connectable=0;strokeColor=#82b366;overflow=hidden;fillColor=#d5e8d4;top=0;left=0;bottom=0;right=0;pointerEvents=1;fontSize=16;fontFamily=Comic Sans MS;" parent="ILP_Jjc2ablGNtknwulI-57" vertex="1">
          <mxGeometry x="55" width="33" height="17" as="geometry">
            <mxRectangle width="33" height="17" as="alternateBounds" />
          </mxGeometry>
        </mxCell>
        <mxCell id="ILP_Jjc2ablGNtknwulI-61" value="" style="shape=partialRectangle;html=1;whiteSpace=wrap;connectable=0;strokeColor=#82b366;overflow=hidden;fillColor=#d5e8d4;top=0;left=0;bottom=0;right=0;pointerEvents=1;fontSize=16;fontFamily=Comic Sans MS;" parent="ILP_Jjc2ablGNtknwulI-57" vertex="1">
          <mxGeometry x="88" width="22" height="17" as="geometry">
            <mxRectangle width="22" height="17" as="alternateBounds" />
          </mxGeometry>
        </mxCell>
        <mxCell id="ILP_Jjc2ablGNtknwulI-62" value="" style="shape=partialRectangle;html=1;whiteSpace=wrap;connectable=0;strokeColor=#82b366;overflow=hidden;fillColor=#d5e8d4;top=0;left=0;bottom=0;right=0;pointerEvents=1;fontSize=16;fontFamily=Comic Sans MS;" parent="ILP_Jjc2ablGNtknwulI-57" vertex="1">
          <mxGeometry x="110" width="28" height="17" as="geometry">
            <mxRectangle width="28" height="17" as="alternateBounds" />
          </mxGeometry>
        </mxCell>
        <mxCell id="ILP_Jjc2ablGNtknwulI-63" value="" style="shape=table;startSize=0;container=1;collapsible=0;childLayout=tableLayout;fontSize=16;fontFamily=Comic Sans MS;fillColor=#CAF0B6;strokeColor=#82b366;rounded=1;arcSize=50;" parent="1" vertex="1">
          <mxGeometry x="173" y="68" width="138" height="17" as="geometry" />
        </mxCell>
        <mxCell id="ILP_Jjc2ablGNtknwulI-64" value="" style="shape=tableRow;horizontal=0;startSize=0;swimlaneHead=0;swimlaneBody=0;strokeColor=#82b366;top=0;left=0;bottom=0;right=0;collapsible=0;dropTarget=0;fillColor=#CAF0B6;points=[[0,0.5],[1,0.5]];portConstraint=eastwest;fontSize=16;fontFamily=Comic Sans MS;opacity=50;" parent="ILP_Jjc2ablGNtknwulI-63" vertex="1">
          <mxGeometry width="138" height="17" as="geometry" />
        </mxCell>
        <mxCell id="ILP_Jjc2ablGNtknwulI-65" value="" style="shape=partialRectangle;html=1;whiteSpace=wrap;connectable=0;strokeColor=#82b366;overflow=hidden;fillColor=#CAF0B6;top=0;left=0;bottom=0;right=0;pointerEvents=1;fontSize=16;fontFamily=Comic Sans MS;opacity=50;" parent="ILP_Jjc2ablGNtknwulI-64" vertex="1">
          <mxGeometry width="28" height="17" as="geometry">
            <mxRectangle width="28" height="17" as="alternateBounds" />
          </mxGeometry>
        </mxCell>
        <mxCell id="ILP_Jjc2ablGNtknwulI-66" value="" style="shape=partialRectangle;html=1;whiteSpace=wrap;connectable=0;strokeColor=#82b366;overflow=hidden;fillColor=#CAF0B6;top=0;left=0;bottom=0;right=0;pointerEvents=1;fontSize=16;fontFamily=Comic Sans MS;opacity=50;" parent="ILP_Jjc2ablGNtknwulI-64" vertex="1">
          <mxGeometry x="28" width="27" height="17" as="geometry">
            <mxRectangle width="27" height="17" as="alternateBounds" />
          </mxGeometry>
        </mxCell>
        <mxCell id="ILP_Jjc2ablGNtknwulI-67" value="" style="shape=partialRectangle;html=1;whiteSpace=wrap;connectable=0;strokeColor=#82b366;overflow=hidden;fillColor=#CAF0B6;top=0;left=0;bottom=0;right=0;pointerEvents=1;fontSize=16;fontFamily=Comic Sans MS;opacity=50;" parent="ILP_Jjc2ablGNtknwulI-64" vertex="1">
          <mxGeometry x="55" width="28" height="17" as="geometry">
            <mxRectangle width="28" height="17" as="alternateBounds" />
          </mxGeometry>
        </mxCell>
        <mxCell id="ILP_Jjc2ablGNtknwulI-68" value="" style="shape=partialRectangle;html=1;whiteSpace=wrap;connectable=0;strokeColor=#82b366;overflow=hidden;fillColor=#CAF0B6;top=0;left=0;bottom=0;right=0;pointerEvents=1;fontSize=16;fontFamily=Comic Sans MS;opacity=50;" parent="ILP_Jjc2ablGNtknwulI-64" vertex="1">
          <mxGeometry x="83" width="27" height="17" as="geometry">
            <mxRectangle width="27" height="17" as="alternateBounds" />
          </mxGeometry>
        </mxCell>
        <mxCell id="ILP_Jjc2ablGNtknwulI-69" value="" style="shape=partialRectangle;html=1;whiteSpace=wrap;connectable=0;strokeColor=#82b366;overflow=hidden;fillColor=#CAF0B6;top=0;left=0;bottom=0;right=0;pointerEvents=1;fontSize=16;fontFamily=Comic Sans MS;opacity=50;" parent="ILP_Jjc2ablGNtknwulI-64" vertex="1">
          <mxGeometry x="110" width="28" height="17" as="geometry">
            <mxRectangle width="28" height="17" as="alternateBounds" />
          </mxGeometry>
        </mxCell>
        <mxCell id="ILP_Jjc2ablGNtknwulI-70" value="" style="shape=table;startSize=0;container=1;collapsible=0;childLayout=tableLayout;fontSize=16;fontFamily=Comic Sans MS;fillColor=#89FB50;strokeColor=#82b366;rounded=1;" parent="1" vertex="1">
          <mxGeometry x="173" y="98" width="138" height="17" as="geometry" />
        </mxCell>
        <mxCell id="ILP_Jjc2ablGNtknwulI-71" value="" style="shape=tableRow;horizontal=0;startSize=0;swimlaneHead=0;swimlaneBody=0;strokeColor=#82b366;top=0;left=0;bottom=0;right=0;collapsible=0;dropTarget=0;fillColor=#9EE88B;points=[[0,0.5],[1,0.5]];portConstraint=eastwest;fontSize=16;fontFamily=Comic Sans MS;" parent="ILP_Jjc2ablGNtknwulI-70" vertex="1">
          <mxGeometry width="138" height="17" as="geometry" />
        </mxCell>
        <mxCell id="ILP_Jjc2ablGNtknwulI-72" value="" style="shape=partialRectangle;html=1;whiteSpace=wrap;connectable=0;strokeColor=#82b366;overflow=hidden;fillColor=#9EE88B;top=0;left=0;bottom=0;right=0;pointerEvents=1;fontSize=16;fontFamily=Comic Sans MS;" parent="ILP_Jjc2ablGNtknwulI-71" vertex="1">
          <mxGeometry width="28" height="17" as="geometry">
            <mxRectangle width="28" height="17" as="alternateBounds" />
          </mxGeometry>
        </mxCell>
        <mxCell id="ILP_Jjc2ablGNtknwulI-73" value="" style="shape=partialRectangle;html=1;whiteSpace=wrap;connectable=0;strokeColor=#82b366;overflow=hidden;fillColor=#9EE88B;top=0;left=0;bottom=0;right=0;pointerEvents=1;fontSize=16;fontFamily=Comic Sans MS;" parent="ILP_Jjc2ablGNtknwulI-71" vertex="1">
          <mxGeometry x="28" width="27" height="17" as="geometry">
            <mxRectangle width="27" height="17" as="alternateBounds" />
          </mxGeometry>
        </mxCell>
        <mxCell id="ILP_Jjc2ablGNtknwulI-74" value="" style="shape=partialRectangle;html=1;whiteSpace=wrap;connectable=0;strokeColor=#82b366;overflow=hidden;fillColor=#9EE88B;top=0;left=0;bottom=0;right=0;pointerEvents=1;fontSize=16;fontFamily=Comic Sans MS;" parent="ILP_Jjc2ablGNtknwulI-71" vertex="1">
          <mxGeometry x="55" width="28" height="17" as="geometry">
            <mxRectangle width="28" height="17" as="alternateBounds" />
          </mxGeometry>
        </mxCell>
        <mxCell id="ILP_Jjc2ablGNtknwulI-75" value="" style="shape=partialRectangle;html=1;whiteSpace=wrap;connectable=0;strokeColor=#82b366;overflow=hidden;fillColor=#9EE88B;top=0;left=0;bottom=0;right=0;pointerEvents=1;fontSize=16;fontFamily=Comic Sans MS;" parent="ILP_Jjc2ablGNtknwulI-71" vertex="1">
          <mxGeometry x="83" width="27" height="17" as="geometry">
            <mxRectangle width="27" height="17" as="alternateBounds" />
          </mxGeometry>
        </mxCell>
        <mxCell id="ILP_Jjc2ablGNtknwulI-76" value="" style="shape=partialRectangle;html=1;whiteSpace=wrap;connectable=0;strokeColor=#82b366;overflow=hidden;fillColor=#9EE88B;top=0;left=0;bottom=0;right=0;pointerEvents=1;fontSize=16;fontFamily=Comic Sans MS;" parent="ILP_Jjc2ablGNtknwulI-71" vertex="1">
          <mxGeometry x="110" width="28" height="17" as="geometry">
            <mxRectangle width="28" height="17" as="alternateBounds" />
          </mxGeometry>
        </mxCell>
        <mxCell id="ILP_Jjc2ablGNtknwulI-118" style="edgeStyle=none;curved=1;rounded=0;orthogonalLoop=1;jettySize=auto;html=1;fontSize=12;startSize=8;endSize=8;" parent="1" edge="1">
          <mxGeometry relative="1" as="geometry">
            <mxPoint x="426.60009765625" y="51.5" as="targetPoint" />
            <mxPoint x="395" y="51.5" as="sourcePoint" />
          </mxGeometry>
        </mxCell>
        <mxCell id="ILP_Jjc2ablGNtknwulI-77" value="&lt;font face=&quot;Comic Sans MS&quot;&gt;&lt;span style=&quot;font-size: 16px;&quot;&gt;Pooling&lt;/span&gt;&lt;/font&gt;" style="rounded=0;whiteSpace=wrap;html=1;fillColor=#fff2cc;strokeColor=#d6b656;" parent="1" vertex="1">
          <mxGeometry x="347" y="4" width="46" height="99" as="geometry" />
        </mxCell>
        <mxCell id="ILP_Jjc2ablGNtknwulI-82" style="edgeStyle=none;curved=1;rounded=0;orthogonalLoop=1;jettySize=auto;html=1;exitX=1;exitY=0.5;exitDx=0;exitDy=0;entryX=0;entryY=0.5;entryDx=0;entryDy=0;fontSize=12;startSize=8;endSize=8;fillColor=#f8cecc;strokeColor=#b85450;" parent="1" source="ILP_Jjc2ablGNtknwulI-78" target="ILP_Jjc2ablGNtknwulI-79" edge="1">
          <mxGeometry relative="1" as="geometry" />
        </mxCell>
        <mxCell id="ILP_Jjc2ablGNtknwulI-78" value="" style="ellipse;whiteSpace=wrap;html=1;aspect=fixed;fillColor=#f8cecc;strokeColor=#b85450;" parent="1" vertex="1">
          <mxGeometry x="67" y="230" width="15" height="15" as="geometry" />
        </mxCell>
        <mxCell id="ILP_Jjc2ablGNtknwulI-83" style="edgeStyle=none;curved=1;rounded=0;orthogonalLoop=1;jettySize=auto;html=1;exitX=0;exitY=0.5;exitDx=0;exitDy=0;entryX=1;entryY=0;entryDx=0;entryDy=0;fontSize=12;startSize=8;endSize=8;fillColor=#f8cecc;strokeColor=#b85450;" parent="1" source="ILP_Jjc2ablGNtknwulI-79" target="ILP_Jjc2ablGNtknwulI-81" edge="1">
          <mxGeometry relative="1" as="geometry" />
        </mxCell>
        <mxCell id="ILP_Jjc2ablGNtknwulI-85" style="edgeStyle=none;curved=1;rounded=0;orthogonalLoop=1;jettySize=auto;html=1;exitX=0.5;exitY=1;exitDx=0;exitDy=0;fontSize=12;startSize=8;endSize=8;fillColor=#f8cecc;strokeColor=#b85450;" parent="1" source="ILP_Jjc2ablGNtknwulI-79" edge="1">
          <mxGeometry relative="1" as="geometry">
            <mxPoint x="128" y="266.79998779296875" as="targetPoint" />
          </mxGeometry>
        </mxCell>
        <mxCell id="ILP_Jjc2ablGNtknwulI-91" style="edgeStyle=none;curved=1;rounded=0;orthogonalLoop=1;jettySize=auto;html=1;fontSize=12;startSize=8;endSize=8;" parent="1" edge="1">
          <mxGeometry relative="1" as="geometry">
            <mxPoint x="182.800048828125" y="251" as="targetPoint" />
            <mxPoint x="140" y="251" as="sourcePoint" />
          </mxGeometry>
        </mxCell>
        <mxCell id="ILP_Jjc2ablGNtknwulI-79" value="" style="ellipse;whiteSpace=wrap;html=1;aspect=fixed;fillColor=#f8cecc;strokeColor=#b85450;" parent="1" vertex="1">
          <mxGeometry x="112" y="220" width="28" height="28" as="geometry" />
        </mxCell>
        <mxCell id="ILP_Jjc2ablGNtknwulI-80" value="" style="ellipse;whiteSpace=wrap;html=1;aspect=fixed;fillColor=#f8cecc;strokeColor=#b85450;" parent="1" vertex="1">
          <mxGeometry x="118" y="267" width="18" height="18" as="geometry" />
        </mxCell>
        <mxCell id="ILP_Jjc2ablGNtknwulI-81" value="" style="ellipse;whiteSpace=wrap;html=1;aspect=fixed;fillColor=#f8cecc;strokeColor=#b85450;" parent="1" vertex="1">
          <mxGeometry x="70" y="264" width="15" height="15" as="geometry" />
        </mxCell>
        <mxCell id="ILP_Jjc2ablGNtknwulI-92" style="edgeStyle=none;curved=1;rounded=0;orthogonalLoop=1;jettySize=auto;html=1;fontSize=12;startSize=8;endSize=8;" parent="1" source="ILP_Jjc2ablGNtknwulI-89" edge="1">
          <mxGeometry relative="1" as="geometry">
            <mxPoint x="294.00006103515625" y="256.5" as="targetPoint" />
          </mxGeometry>
        </mxCell>
        <mxCell id="ILP_Jjc2ablGNtknwulI-89" value="&lt;font face=&quot;Comic Sans MS&quot; style=&quot;font-size: 16px;&quot;&gt;One-hot&lt;br&gt;Encoder&lt;br&gt;&lt;/font&gt;" style="rounded=0;whiteSpace=wrap;html=1;fillColor=#dae8fc;strokeColor=#6c8ebf;" parent="1" vertex="1">
          <mxGeometry x="191" y="207" width="69" height="99" as="geometry" />
        </mxCell>
        <mxCell id="ILP_Jjc2ablGNtknwulI-97" style="edgeStyle=none;curved=1;rounded=0;orthogonalLoop=1;jettySize=auto;html=1;fontSize=12;startSize=8;endSize=8;" parent="1" source="ILP_Jjc2ablGNtknwulI-94" edge="1">
          <mxGeometry relative="1" as="geometry">
            <mxPoint x="355" y="257" as="targetPoint" />
          </mxGeometry>
        </mxCell>
        <mxCell id="ILP_Jjc2ablGNtknwulI-94" value="&lt;font face=&quot;Comic Sans MS&quot; style=&quot;font-size: 16px;&quot;&gt;GCN&lt;br&gt;&lt;/font&gt;" style="rounded=0;whiteSpace=wrap;html=1;fillColor=#dae8fc;strokeColor=#6c8ebf;" parent="1" vertex="1">
          <mxGeometry x="292" y="207" width="39" height="99" as="geometry" />
        </mxCell>
        <mxCell id="ILP_Jjc2ablGNtknwulI-95" value="&lt;font face=&quot;Comic Sans MS&quot; style=&quot;font-size: 16px;&quot;&gt;BN&lt;br&gt;&lt;/font&gt;" style="rounded=0;whiteSpace=wrap;html=1;fillColor=#d5e8d4;strokeColor=#82b366;" parent="1" vertex="1">
          <mxGeometry x="465" y="205" width="44" height="99" as="geometry" />
        </mxCell>
        <mxCell id="ILP_Jjc2ablGNtknwulI-98" style="edgeStyle=none;curved=1;rounded=0;orthogonalLoop=1;jettySize=auto;html=1;entryX=0;entryY=0.5;entryDx=0;entryDy=0;fontSize=12;startSize=8;endSize=8;" parent="1" source="ILP_Jjc2ablGNtknwulI-96" target="ILP_Jjc2ablGNtknwulI-95" edge="1">
          <mxGeometry relative="1" as="geometry" />
        </mxCell>
        <mxCell id="ILP_Jjc2ablGNtknwulI-96" value="&lt;font face=&quot;Comic Sans MS&quot;&gt;&lt;span style=&quot;font-size: 16px;&quot;&gt;Pooling&lt;/span&gt;&lt;/font&gt;" style="rounded=0;whiteSpace=wrap;html=1;fillColor=#fff2cc;strokeColor=#d6b656;" parent="1" vertex="1">
          <mxGeometry x="406" y="205" width="45" height="99" as="geometry" />
        </mxCell>
        <mxCell id="ILP_Jjc2ablGNtknwulI-124" style="edgeStyle=none;curved=1;rounded=0;orthogonalLoop=1;jettySize=auto;html=1;exitX=1;exitY=0.5;exitDx=0;exitDy=0;fontSize=12;startSize=8;endSize=8;entryX=0.5;entryY=1;entryDx=0;entryDy=0;" parent="1" source="ILP_Jjc2ablGNtknwulI-100" target="ILP_Jjc2ablGNtknwulI-126" edge="1">
          <mxGeometry relative="1" as="geometry">
            <mxPoint x="616" y="137" as="targetPoint" />
          </mxGeometry>
        </mxCell>
        <mxCell id="ILP_Jjc2ablGNtknwulI-100" value="&lt;font face=&quot;Comic Sans MS&quot; style=&quot;font-size: 16px;&quot;&gt;FC&lt;br&gt;&lt;/font&gt;" style="rounded=0;whiteSpace=wrap;html=1;fillColor=#e1d5e7;strokeColor=#9673a6;" parent="1" vertex="1">
          <mxGeometry x="539" y="204.5" width="44" height="99" as="geometry" />
        </mxCell>
        <mxCell id="ILP_Jjc2ablGNtknwulI-105" value="" style="shape=table;startSize=0;container=1;collapsible=0;childLayout=tableLayout;fontSize=16;fontFamily=Comic Sans MS;fillColor=#fff2cc;strokeColor=#d6b656;rounded=1;" parent="1" vertex="1">
          <mxGeometry x="172.5" y="7" width="138" height="20" as="geometry" />
        </mxCell>
        <mxCell id="ILP_Jjc2ablGNtknwulI-106" value="" style="shape=tableRow;horizontal=0;startSize=0;swimlaneHead=0;swimlaneBody=0;strokeColor=#d6b656;top=0;left=0;bottom=0;right=0;collapsible=0;dropTarget=0;fillColor=#fff2cc;points=[[0,0.5],[1,0.5]];portConstraint=eastwest;fontSize=16;fontFamily=Comic Sans MS;" parent="ILP_Jjc2ablGNtknwulI-105" vertex="1">
          <mxGeometry width="138" height="20" as="geometry" />
        </mxCell>
        <mxCell id="ILP_Jjc2ablGNtknwulI-107" value="" style="shape=partialRectangle;html=1;whiteSpace=wrap;connectable=0;strokeColor=#d6b656;overflow=hidden;fillColor=#fff2cc;top=0;left=0;bottom=0;right=0;pointerEvents=1;fontSize=16;fontFamily=Comic Sans MS;" parent="ILP_Jjc2ablGNtknwulI-106" vertex="1">
          <mxGeometry width="28" height="20" as="geometry">
            <mxRectangle width="28" height="20" as="alternateBounds" />
          </mxGeometry>
        </mxCell>
        <mxCell id="ILP_Jjc2ablGNtknwulI-108" value="" style="shape=partialRectangle;html=1;whiteSpace=wrap;connectable=0;strokeColor=#d6b656;overflow=hidden;fillColor=#fff2cc;top=0;left=0;bottom=0;right=0;pointerEvents=1;fontSize=16;fontFamily=Comic Sans MS;" parent="ILP_Jjc2ablGNtknwulI-106" vertex="1">
          <mxGeometry x="28" width="27" height="20" as="geometry">
            <mxRectangle width="27" height="20" as="alternateBounds" />
          </mxGeometry>
        </mxCell>
        <mxCell id="ILP_Jjc2ablGNtknwulI-109" value="" style="shape=partialRectangle;html=1;whiteSpace=wrap;connectable=0;strokeColor=#d6b656;overflow=hidden;fillColor=#fff2cc;top=0;left=0;bottom=0;right=0;pointerEvents=1;fontSize=16;fontFamily=Comic Sans MS;" parent="ILP_Jjc2ablGNtknwulI-106" vertex="1">
          <mxGeometry x="55" width="28" height="20" as="geometry">
            <mxRectangle width="28" height="20" as="alternateBounds" />
          </mxGeometry>
        </mxCell>
        <mxCell id="ILP_Jjc2ablGNtknwulI-110" value="" style="shape=partialRectangle;html=1;whiteSpace=wrap;connectable=0;strokeColor=#d6b656;overflow=hidden;fillColor=#fff2cc;top=0;left=0;bottom=0;right=0;pointerEvents=1;fontSize=16;fontFamily=Comic Sans MS;" parent="ILP_Jjc2ablGNtknwulI-106" vertex="1">
          <mxGeometry x="83" width="27" height="20" as="geometry">
            <mxRectangle width="27" height="20" as="alternateBounds" />
          </mxGeometry>
        </mxCell>
        <mxCell id="ILP_Jjc2ablGNtknwulI-111" value="" style="shape=partialRectangle;html=1;whiteSpace=wrap;connectable=0;strokeColor=#d6b656;overflow=hidden;fillColor=#fff2cc;top=0;left=0;bottom=0;right=0;pointerEvents=1;fontSize=16;fontFamily=Comic Sans MS;" parent="ILP_Jjc2ablGNtknwulI-106" vertex="1">
          <mxGeometry x="110" width="28" height="20" as="geometry">
            <mxRectangle width="28" height="20" as="alternateBounds" />
          </mxGeometry>
        </mxCell>
        <mxCell id="ILP_Jjc2ablGNtknwulI-114" value="&lt;font face=&quot;Comic Sans MS&quot;&gt;header vector&lt;/font&gt;" style="text;html=1;align=center;verticalAlign=middle;resizable=0;points=[];autosize=1;strokeColor=none;fillColor=none;fontSize=16;" parent="1" vertex="1">
          <mxGeometry x="169" y="-34" width="123" height="32" as="geometry" />
        </mxCell>
        <mxCell id="ILP_Jjc2ablGNtknwulI-115" value="&lt;font face=&quot;Comic Sans MS&quot;&gt;payload vectors&lt;/font&gt;" style="text;html=1;align=center;verticalAlign=middle;resizable=0;points=[];autosize=1;strokeColor=none;fillColor=none;fontSize=16;" parent="1" vertex="1">
          <mxGeometry x="172.5" y="127" width="134" height="32" as="geometry" />
        </mxCell>
        <mxCell id="ILP_Jjc2ablGNtknwulI-123" style="edgeStyle=none;curved=1;rounded=0;orthogonalLoop=1;jettySize=auto;html=1;exitX=1;exitY=0.5;exitDx=0;exitDy=0;fontSize=12;startSize=8;endSize=8;entryX=0.5;entryY=0;entryDx=0;entryDy=0;" parent="1" source="ILP_Jjc2ablGNtknwulI-120" target="ILP_Jjc2ablGNtknwulI-126" edge="1">
          <mxGeometry relative="1" as="geometry">
            <mxPoint x="621" y="113" as="targetPoint" />
          </mxGeometry>
        </mxCell>
        <mxCell id="ILP_Jjc2ablGNtknwulI-120" value="&lt;font face=&quot;Comic Sans MS&quot; style=&quot;font-size: 16px;&quot;&gt;FC&lt;br&gt;&lt;/font&gt;" style="rounded=0;whiteSpace=wrap;html=1;fillColor=#e1d5e7;strokeColor=#9673a6;" parent="1" vertex="1">
          <mxGeometry x="486" y="3" width="44" height="99" as="geometry" />
        </mxCell>
        <mxCell id="ILP_Jjc2ablGNtknwulI-122" style="edgeStyle=none;curved=1;rounded=0;orthogonalLoop=1;jettySize=auto;html=1;exitX=1;exitY=0.5;exitDx=0;exitDy=0;entryX=0;entryY=0.5;entryDx=0;entryDy=0;fontSize=12;startSize=8;endSize=8;" parent="1" source="ILP_Jjc2ablGNtknwulI-121" target="ILP_Jjc2ablGNtknwulI-120" edge="1">
          <mxGeometry relative="1" as="geometry" />
        </mxCell>
        <mxCell id="ILP_Jjc2ablGNtknwulI-121" value="&lt;font face=&quot;Comic Sans MS&quot; style=&quot;font-size: 16px;&quot;&gt;BN&lt;br&gt;&lt;/font&gt;" style="rounded=0;whiteSpace=wrap;html=1;fillColor=#d5e8d4;strokeColor=#82b366;" parent="1" vertex="1">
          <mxGeometry x="418" y="4" width="44" height="99" as="geometry" />
        </mxCell>
        <mxCell id="ILP_Jjc2ablGNtknwulI-127" style="edgeStyle=none;curved=1;rounded=0;orthogonalLoop=1;jettySize=auto;html=1;fontSize=12;startSize=8;endSize=8;" parent="1" source="ILP_Jjc2ablGNtknwulI-126" edge="1">
          <mxGeometry relative="1" as="geometry">
            <mxPoint x="666.800048828125" y="128" as="targetPoint" />
          </mxGeometry>
        </mxCell>
        <mxCell id="ILP_Jjc2ablGNtknwulI-126" value="&lt;font face=&quot;Comic Sans MS&quot; style=&quot;font-size: 16px;&quot;&gt;Classifer&lt;br&gt;&lt;/font&gt;" style="rounded=0;whiteSpace=wrap;html=1;fillColor=#ffe6cc;strokeColor=#d79b00;" parent="1" vertex="1">
          <mxGeometry x="570" y="103" width="71" height="50" as="geometry" />
        </mxCell>
        <mxCell id="ILP_Jjc2ablGNtknwulI-128" value="" style="rounded=0;whiteSpace=wrap;html=1;fillColor=#f8cecc;strokeColor=#b85450;" parent="1" vertex="1">
          <mxGeometry x="668" y="57" width="24" height="25" as="geometry" />
        </mxCell>
        <mxCell id="ILP_Jjc2ablGNtknwulI-129" value="" style="rounded=0;whiteSpace=wrap;html=1;fillColor=#f8cecc;strokeColor=#b85450;" parent="1" vertex="1">
          <mxGeometry x="668" y="90.5" width="24" height="25" as="geometry" />
        </mxCell>
        <mxCell id="ILP_Jjc2ablGNtknwulI-130" value="" style="rounded=0;whiteSpace=wrap;html=1;fillColor=#f8cecc;strokeColor=#b85450;" parent="1" vertex="1">
          <mxGeometry x="668" y="125" width="24" height="25" as="geometry" />
        </mxCell>
        <mxCell id="ILP_Jjc2ablGNtknwulI-131" value="" style="rounded=0;whiteSpace=wrap;html=1;fillColor=#f8cecc;strokeColor=#b85450;" parent="1" vertex="1">
          <mxGeometry x="668" y="166" width="24" height="25" as="geometry" />
        </mxCell>
        <mxCell id="ILP_Jjc2ablGNtknwulI-132" value="&lt;font face=&quot;Comic Sans MS&quot;&gt;Labels&lt;/font&gt;" style="text;html=1;align=center;verticalAlign=middle;resizable=0;points=[];autosize=1;strokeColor=none;fillColor=none;fontSize=16;" parent="1" vertex="1">
          <mxGeometry x="644" y="12" width="65" height="32" as="geometry" />
        </mxCell>
        <mxCell id="ILP_Jjc2ablGNtknwulI-133" value="&lt;font face=&quot;Comic Sans MS&quot;&gt;N * Blocks&lt;/font&gt;" style="text;html=1;align=center;verticalAlign=middle;resizable=0;points=[];autosize=1;strokeColor=none;fillColor=none;fontSize=16;" parent="1" vertex="1">
          <mxGeometry x="340" y="323" width="96" height="32" as="geometry" />
        </mxCell>
        <mxCell id="ILP_Jjc2ablGNtknwulI-134" value="&lt;font face=&quot;Comic Sans MS&quot;&gt;temporal sequence&lt;/font&gt;" style="text;html=1;align=center;verticalAlign=middle;resizable=0;points=[];autosize=1;strokeColor=none;fillColor=none;fontSize=16;" parent="1" vertex="1">
          <mxGeometry x="-148" y="282" width="156" height="32" as="geometry" />
        </mxCell>
        <mxCell id="ILP_Jjc2ablGNtknwulI-135" value="&lt;font face=&quot;Comic Sans MS&quot;&gt;BN--BatchNorm Layer&lt;br&gt;FC--&lt;/font&gt;&lt;font face=&quot;Comic Sans MS&quot;&gt;Fully Connected Layer&lt;br&gt;&lt;/font&gt;&lt;font face=&quot;Comic Sans MS&quot;&gt;GCN--Graph Convolutional Layer&lt;/font&gt;&lt;font face=&quot;Comic Sans MS&quot;&gt;&lt;br&gt;&lt;/font&gt;" style="text;html=1;align=center;verticalAlign=middle;resizable=0;points=[];autosize=1;strokeColor=none;fillColor=none;fontSize=16;" parent="1" vertex="1">
          <mxGeometry x="427" y="-79" width="257" height="72" as="geometry" />
        </mxCell>
        <mxCell id="ILP_Jjc2ablGNtknwulI-138" style="edgeStyle=none;curved=1;rounded=0;orthogonalLoop=1;jettySize=auto;html=1;exitX=1;exitY=0.5;exitDx=0;exitDy=0;entryX=0;entryY=0.5;entryDx=0;entryDy=0;fontSize=12;startSize=8;endSize=8;" parent="1" source="ILP_Jjc2ablGNtknwulI-136" target="ILP_Jjc2ablGNtknwulI-96" edge="1">
          <mxGeometry relative="1" as="geometry" />
        </mxCell>
        <mxCell id="ILP_Jjc2ablGNtknwulI-136" value="&lt;font face=&quot;Comic Sans MS&quot; style=&quot;font-size: 16px;&quot;&gt;ReLU&lt;/font&gt;" style="rounded=0;whiteSpace=wrap;html=1;fillColor=#ffe6cc;strokeColor=#d79b00;" parent="1" vertex="1">
          <mxGeometry x="347" y="204.5" width="39" height="99" as="geometry" />
        </mxCell>
        <mxCell id="ILP_Jjc2ablGNtknwulI-139" value="&lt;font face=&quot;Comic Sans MS&quot; style=&quot;font-size: 16px;&quot;&gt;Unlabeled Data&lt;/font&gt;" style="rounded=1;whiteSpace=wrap;html=1;fillColor=#e1d5e7;strokeColor=#9673a6;" parent="1" vertex="1">
          <mxGeometry x="-324" y="-250" width="120" height="60" as="geometry" />
        </mxCell>
        <mxCell id="ILP_Jjc2ablGNtknwulI-140" style="edgeStyle=none;curved=1;rounded=0;orthogonalLoop=1;jettySize=auto;html=1;exitX=1;exitY=0.5;exitDx=0;exitDy=0;fontSize=12;startSize=8;endSize=8;" parent="1" source="ILP_Jjc2ablGNtknwulI-141" edge="1">
          <mxGeometry relative="1" as="geometry">
            <mxPoint x="16.800048828125" y="-292" as="targetPoint" />
          </mxGeometry>
        </mxCell>
        <mxCell id="ILP_Jjc2ablGNtknwulI-141" value="&lt;font face=&quot;Comic Sans MS&quot; style=&quot;font-size: 16px;&quot;&gt;IP Header 1&lt;br&gt;IP Header 2&lt;br&gt;...&lt;br&gt;IP Header N&lt;br&gt;&lt;/font&gt;" style="rounded=1;whiteSpace=wrap;html=1;align=center;fillColor=#fff2cc;strokeColor=#d6b656;" parent="1" vertex="1">
          <mxGeometry x="-160" y="-344" width="128" height="104" as="geometry" />
        </mxCell>
        <mxCell id="ILP_Jjc2ablGNtknwulI-142" value="&lt;font face=&quot;Comic Sans MS&quot; style=&quot;font-size: 16px;&quot;&gt;Payload1 Line1&lt;br&gt;&lt;/font&gt;&lt;font face=&quot;Comic Sans MS&quot; style=&quot;font-size: 16px;&quot;&gt;Payload2 Line1&lt;br&gt;&lt;/font&gt;&lt;font face=&quot;Comic Sans MS&quot; style=&quot;font-size: 16px;&quot;&gt;...&lt;br&gt;PayloadN Line1&lt;br&gt;&lt;/font&gt;" style="rounded=1;whiteSpace=wrap;html=1;align=center;fillColor=#72E876;strokeColor=#82b366;" parent="1" vertex="1">
          <mxGeometry x="-174" y="-225" width="132" height="103" as="geometry" />
        </mxCell>
        <mxCell id="ILP_Jjc2ablGNtknwulI-143" value="&lt;font face=&quot;Comic Sans MS&quot; style=&quot;font-size: 16px;&quot;&gt;Payload1 Line1&lt;br&gt;&lt;/font&gt;&lt;font face=&quot;Comic Sans MS&quot; style=&quot;font-size: 16px;&quot;&gt;Payload2 Line1&lt;br&gt;&lt;/font&gt;&lt;font face=&quot;Comic Sans MS&quot; style=&quot;font-size: 16px;&quot;&gt;...&lt;br&gt;PayloadN Line1&lt;br&gt;&lt;/font&gt;" style="rounded=1;whiteSpace=wrap;html=1;align=center;fillColor=#B0E8AE;strokeColor=#82b366;" parent="1" vertex="1">
          <mxGeometry x="-164" y="-215" width="132" height="103" as="geometry" />
        </mxCell>
        <mxCell id="ILP_Jjc2ablGNtknwulI-144" style="edgeStyle=none;curved=1;rounded=0;orthogonalLoop=1;jettySize=auto;html=1;exitX=1;exitY=0.5;exitDx=0;exitDy=0;fontSize=12;startSize=8;endSize=8;" parent="1" source="ILP_Jjc2ablGNtknwulI-145" edge="1">
          <mxGeometry relative="1" as="geometry">
            <mxPoint x="15.20001220703125" y="-149" as="targetPoint" />
          </mxGeometry>
        </mxCell>
        <mxCell id="ILP_Jjc2ablGNtknwulI-145" value="&lt;font face=&quot;Comic Sans MS&quot; style=&quot;font-size: 16px;&quot;&gt;Payload1 Line1&lt;br&gt;&lt;/font&gt;&lt;font face=&quot;Comic Sans MS&quot; style=&quot;font-size: 16px;&quot;&gt;Payload2 Line1&lt;br&gt;&lt;/font&gt;&lt;font face=&quot;Comic Sans MS&quot; style=&quot;font-size: 16px;&quot;&gt;...&lt;br&gt;PayloadN Line1&lt;br&gt;&lt;/font&gt;" style="rounded=1;whiteSpace=wrap;html=1;align=center;fillColor=#d5e8d4;strokeColor=#82b366;" parent="1" vertex="1">
          <mxGeometry x="-153" y="-201" width="132" height="103" as="geometry" />
        </mxCell>
        <mxCell id="ILP_Jjc2ablGNtknwulI-146" style="edgeStyle=none;curved=1;rounded=0;orthogonalLoop=1;jettySize=auto;html=1;exitX=1;exitY=0.5;exitDx=0;exitDy=0;entryX=0;entryY=0.25;entryDx=0;entryDy=0;fontSize=12;startSize=8;endSize=8;" parent="1" source="ILP_Jjc2ablGNtknwulI-147" target="ILP_Jjc2ablGNtknwulI-171" edge="1">
          <mxGeometry relative="1" as="geometry" />
        </mxCell>
        <mxCell id="ILP_Jjc2ablGNtknwulI-147" value="&lt;font face=&quot;Comic Sans MS&quot; style=&quot;font-size: 16px;&quot;&gt;Encoder&lt;br&gt;（Transformer)&lt;br&gt;&lt;/font&gt;" style="rounded=0;whiteSpace=wrap;html=1;fillColor=#dae8fc;strokeColor=#6c8ebf;" parent="1" vertex="1">
          <mxGeometry x="25" y="-344" width="111" height="101" as="geometry" />
        </mxCell>
        <mxCell id="ILP_Jjc2ablGNtknwulI-148" style="edgeStyle=none;curved=1;rounded=0;orthogonalLoop=1;jettySize=auto;html=1;exitX=1;exitY=0.5;exitDx=0;exitDy=0;fontSize=12;startSize=8;endSize=8;" parent="1" source="ILP_Jjc2ablGNtknwulI-149" edge="1">
          <mxGeometry relative="1" as="geometry">
            <mxPoint x="157.60003662109375" y="-205.4000244140625" as="targetPoint" />
          </mxGeometry>
        </mxCell>
        <mxCell id="ILP_Jjc2ablGNtknwulI-149" value="&lt;font face=&quot;Comic Sans MS&quot; style=&quot;font-size: 16px;&quot;&gt;Encoder&lt;br&gt;（Transfomer)&lt;br&gt;&lt;/font&gt;" style="rounded=0;whiteSpace=wrap;html=1;fillColor=#dae8fc;strokeColor=#6c8ebf;" parent="1" vertex="1">
          <mxGeometry x="27" y="-201" width="110" height="101" as="geometry" />
        </mxCell>
        <mxCell id="ILP_Jjc2ablGNtknwulI-182" style="edgeStyle=none;curved=1;rounded=0;orthogonalLoop=1;jettySize=auto;html=1;exitX=1;exitY=0.75;exitDx=0;exitDy=0;entryX=0;entryY=0.5;entryDx=0;entryDy=0;fontSize=12;startSize=8;endSize=8;" parent="1" source="ILP_Jjc2ablGNtknwulI-171" target="ILP_Jjc2ablGNtknwulI-180" edge="1">
          <mxGeometry relative="1" as="geometry" />
        </mxCell>
        <mxCell id="ILP_Jjc2ablGNtknwulI-150" value="" style="shape=table;startSize=0;container=1;collapsible=0;childLayout=tableLayout;fontSize=16;fontFamily=Comic Sans MS;fillColor=#d5e8d4;strokeColor=#82b366;rounded=1;" parent="1" vertex="1">
          <mxGeometry x="163" y="-241" width="138" height="17" as="geometry" />
        </mxCell>
        <mxCell id="ILP_Jjc2ablGNtknwulI-151" value="" style="shape=tableRow;horizontal=0;startSize=0;swimlaneHead=0;swimlaneBody=0;strokeColor=#82b366;top=0;left=0;bottom=0;right=0;collapsible=0;dropTarget=0;fillColor=#d5e8d4;points=[[0,0.5],[1,0.5]];portConstraint=eastwest;fontSize=16;fontFamily=Comic Sans MS;" parent="ILP_Jjc2ablGNtknwulI-150" vertex="1">
          <mxGeometry width="138" height="17" as="geometry" />
        </mxCell>
        <mxCell id="ILP_Jjc2ablGNtknwulI-152" value="" style="shape=partialRectangle;html=1;whiteSpace=wrap;connectable=0;strokeColor=#82b366;overflow=hidden;fillColor=#d5e8d4;top=0;left=0;bottom=0;right=0;pointerEvents=1;fontSize=16;fontFamily=Comic Sans MS;" parent="ILP_Jjc2ablGNtknwulI-151" vertex="1">
          <mxGeometry width="28" height="17" as="geometry">
            <mxRectangle width="28" height="17" as="alternateBounds" />
          </mxGeometry>
        </mxCell>
        <mxCell id="ILP_Jjc2ablGNtknwulI-153" value="" style="shape=partialRectangle;html=1;whiteSpace=wrap;connectable=0;strokeColor=#82b366;overflow=hidden;fillColor=#d5e8d4;top=0;left=0;bottom=0;right=0;pointerEvents=1;fontSize=16;fontFamily=Comic Sans MS;" parent="ILP_Jjc2ablGNtknwulI-151" vertex="1">
          <mxGeometry x="28" width="27" height="17" as="geometry">
            <mxRectangle width="27" height="17" as="alternateBounds" />
          </mxGeometry>
        </mxCell>
        <mxCell id="ILP_Jjc2ablGNtknwulI-154" value="" style="shape=partialRectangle;html=1;whiteSpace=wrap;connectable=0;strokeColor=#82b366;overflow=hidden;fillColor=#d5e8d4;top=0;left=0;bottom=0;right=0;pointerEvents=1;fontSize=16;fontFamily=Comic Sans MS;" parent="ILP_Jjc2ablGNtknwulI-151" vertex="1">
          <mxGeometry x="55" width="33" height="17" as="geometry">
            <mxRectangle width="33" height="17" as="alternateBounds" />
          </mxGeometry>
        </mxCell>
        <mxCell id="ILP_Jjc2ablGNtknwulI-155" value="" style="shape=partialRectangle;html=1;whiteSpace=wrap;connectable=0;overflow=hidden;top=0;left=0;bottom=0;right=0;pointerEvents=1;fontSize=16;fontFamily=Comic Sans MS;" parent="ILP_Jjc2ablGNtknwulI-151" vertex="1">
          <mxGeometry x="88" width="22" height="17" as="geometry">
            <mxRectangle width="22" height="17" as="alternateBounds" />
          </mxGeometry>
        </mxCell>
        <mxCell id="ILP_Jjc2ablGNtknwulI-156" value="" style="shape=partialRectangle;html=1;whiteSpace=wrap;connectable=0;strokeColor=#82b366;overflow=hidden;fillColor=#d5e8d4;top=0;left=0;bottom=0;right=0;pointerEvents=1;fontSize=16;fontFamily=Comic Sans MS;" parent="ILP_Jjc2ablGNtknwulI-151" vertex="1">
          <mxGeometry x="110" width="28" height="17" as="geometry">
            <mxRectangle width="28" height="17" as="alternateBounds" />
          </mxGeometry>
        </mxCell>
        <mxCell id="ILP_Jjc2ablGNtknwulI-183" style="edgeStyle=none;curved=1;rounded=0;orthogonalLoop=1;jettySize=auto;html=1;exitX=1;exitY=0.5;exitDx=0;exitDy=0;entryX=0;entryY=0.5;entryDx=0;entryDy=0;fontSize=12;startSize=8;endSize=8;" parent="1" source="ILP_Jjc2ablGNtknwulI-157" target="ILP_Jjc2ablGNtknwulI-181" edge="1">
          <mxGeometry relative="1" as="geometry" />
        </mxCell>
        <mxCell id="ILP_Jjc2ablGNtknwulI-157" value="" style="shape=table;startSize=0;container=1;collapsible=0;childLayout=tableLayout;fontSize=16;fontFamily=Comic Sans MS;fillColor=#CAF0B6;strokeColor=#82b366;rounded=1;arcSize=50;" parent="1" vertex="1">
          <mxGeometry x="163" y="-213" width="138" height="17" as="geometry" />
        </mxCell>
        <mxCell id="ILP_Jjc2ablGNtknwulI-158" value="" style="shape=tableRow;horizontal=0;startSize=0;swimlaneHead=0;swimlaneBody=0;strokeColor=#82b366;top=0;left=0;bottom=0;right=0;collapsible=0;dropTarget=0;fillColor=#CAF0B6;points=[[0,0.5],[1,0.5]];portConstraint=eastwest;fontSize=16;fontFamily=Comic Sans MS;opacity=50;" parent="ILP_Jjc2ablGNtknwulI-157" vertex="1">
          <mxGeometry width="138" height="17" as="geometry" />
        </mxCell>
        <mxCell id="ILP_Jjc2ablGNtknwulI-159" value="" style="shape=partialRectangle;html=1;whiteSpace=wrap;connectable=0;overflow=hidden;top=0;left=0;bottom=0;right=0;pointerEvents=1;fontSize=16;fontFamily=Comic Sans MS;opacity=50;" parent="ILP_Jjc2ablGNtknwulI-158" vertex="1">
          <mxGeometry width="28" height="17" as="geometry">
            <mxRectangle width="28" height="17" as="alternateBounds" />
          </mxGeometry>
        </mxCell>
        <mxCell id="ILP_Jjc2ablGNtknwulI-160" value="" style="shape=partialRectangle;html=1;whiteSpace=wrap;connectable=0;strokeColor=#82b366;overflow=hidden;fillColor=#CAF0B6;top=0;left=0;bottom=0;right=0;pointerEvents=1;fontSize=16;fontFamily=Comic Sans MS;opacity=50;" parent="ILP_Jjc2ablGNtknwulI-158" vertex="1">
          <mxGeometry x="28" width="27" height="17" as="geometry">
            <mxRectangle width="27" height="17" as="alternateBounds" />
          </mxGeometry>
        </mxCell>
        <mxCell id="ILP_Jjc2ablGNtknwulI-161" value="" style="shape=partialRectangle;html=1;whiteSpace=wrap;connectable=0;strokeColor=#82b366;overflow=hidden;fillColor=#CAF0B6;top=0;left=0;bottom=0;right=0;pointerEvents=1;fontSize=16;fontFamily=Comic Sans MS;opacity=50;" parent="ILP_Jjc2ablGNtknwulI-158" vertex="1">
          <mxGeometry x="55" width="28" height="17" as="geometry">
            <mxRectangle width="28" height="17" as="alternateBounds" />
          </mxGeometry>
        </mxCell>
        <mxCell id="ILP_Jjc2ablGNtknwulI-162" value="" style="shape=partialRectangle;html=1;whiteSpace=wrap;connectable=0;strokeColor=#82b366;overflow=hidden;fillColor=#CAF0B6;top=0;left=0;bottom=0;right=0;pointerEvents=1;fontSize=16;fontFamily=Comic Sans MS;opacity=50;" parent="ILP_Jjc2ablGNtknwulI-158" vertex="1">
          <mxGeometry x="83" width="27" height="17" as="geometry">
            <mxRectangle width="27" height="17" as="alternateBounds" />
          </mxGeometry>
        </mxCell>
        <mxCell id="ILP_Jjc2ablGNtknwulI-163" value="" style="shape=partialRectangle;html=1;whiteSpace=wrap;connectable=0;strokeColor=#82b366;overflow=hidden;fillColor=#CAF0B6;top=0;left=0;bottom=0;right=0;pointerEvents=1;fontSize=16;fontFamily=Comic Sans MS;opacity=50;" parent="ILP_Jjc2ablGNtknwulI-158" vertex="1">
          <mxGeometry x="110" width="28" height="17" as="geometry">
            <mxRectangle width="28" height="17" as="alternateBounds" />
          </mxGeometry>
        </mxCell>
        <mxCell id="ILP_Jjc2ablGNtknwulI-164" value="" style="shape=table;startSize=0;container=1;collapsible=0;childLayout=tableLayout;fontSize=16;fontFamily=Comic Sans MS;fillColor=#89FB50;strokeColor=#82b366;rounded=1;" parent="1" vertex="1">
          <mxGeometry x="163" y="-183" width="138" height="17" as="geometry" />
        </mxCell>
        <mxCell id="ILP_Jjc2ablGNtknwulI-165" value="" style="shape=tableRow;horizontal=0;startSize=0;swimlaneHead=0;swimlaneBody=0;strokeColor=#82b366;top=0;left=0;bottom=0;right=0;collapsible=0;dropTarget=0;fillColor=#9EE88B;points=[[0,0.5],[1,0.5]];portConstraint=eastwest;fontSize=16;fontFamily=Comic Sans MS;" parent="ILP_Jjc2ablGNtknwulI-164" vertex="1">
          <mxGeometry width="138" height="17" as="geometry" />
        </mxCell>
        <mxCell id="ILP_Jjc2ablGNtknwulI-166" value="" style="shape=partialRectangle;html=1;whiteSpace=wrap;connectable=0;strokeColor=#82b366;overflow=hidden;fillColor=#9EE88B;top=0;left=0;bottom=0;right=0;pointerEvents=1;fontSize=16;fontFamily=Comic Sans MS;" parent="ILP_Jjc2ablGNtknwulI-165" vertex="1">
          <mxGeometry width="28" height="17" as="geometry">
            <mxRectangle width="28" height="17" as="alternateBounds" />
          </mxGeometry>
        </mxCell>
        <mxCell id="ILP_Jjc2ablGNtknwulI-167" value="" style="shape=partialRectangle;html=1;whiteSpace=wrap;connectable=0;strokeColor=#82b366;overflow=hidden;fillColor=#9EE88B;top=0;left=0;bottom=0;right=0;pointerEvents=1;fontSize=16;fontFamily=Comic Sans MS;" parent="ILP_Jjc2ablGNtknwulI-165" vertex="1">
          <mxGeometry x="28" width="27" height="17" as="geometry">
            <mxRectangle width="27" height="17" as="alternateBounds" />
          </mxGeometry>
        </mxCell>
        <mxCell id="ILP_Jjc2ablGNtknwulI-168" value="" style="shape=partialRectangle;html=1;whiteSpace=wrap;connectable=0;strokeColor=#82b366;overflow=hidden;fillColor=#9EE88B;top=0;left=0;bottom=0;right=0;pointerEvents=1;fontSize=16;fontFamily=Comic Sans MS;" parent="ILP_Jjc2ablGNtknwulI-165" vertex="1">
          <mxGeometry x="55" width="28" height="17" as="geometry">
            <mxRectangle width="28" height="17" as="alternateBounds" />
          </mxGeometry>
        </mxCell>
        <mxCell id="ILP_Jjc2ablGNtknwulI-169" value="" style="shape=partialRectangle;html=1;whiteSpace=wrap;connectable=0;strokeColor=#82b366;overflow=hidden;fillColor=#9EE88B;top=0;left=0;bottom=0;right=0;pointerEvents=1;fontSize=16;fontFamily=Comic Sans MS;" parent="ILP_Jjc2ablGNtknwulI-165" vertex="1">
          <mxGeometry x="83" width="27" height="17" as="geometry">
            <mxRectangle width="27" height="17" as="alternateBounds" />
          </mxGeometry>
        </mxCell>
        <mxCell id="ILP_Jjc2ablGNtknwulI-170" value="" style="shape=partialRectangle;html=1;whiteSpace=wrap;connectable=0;strokeColor=#82b366;overflow=hidden;fillColor=#9EE88B;top=0;left=0;bottom=0;right=0;pointerEvents=1;fontSize=16;fontFamily=Comic Sans MS;" parent="ILP_Jjc2ablGNtknwulI-165" vertex="1">
          <mxGeometry x="110" width="28" height="17" as="geometry">
            <mxRectangle width="28" height="17" as="alternateBounds" />
          </mxGeometry>
        </mxCell>
        <mxCell id="ILP_Jjc2ablGNtknwulI-171" value="" style="shape=table;startSize=0;container=1;collapsible=0;childLayout=tableLayout;fontSize=16;fontFamily=Comic Sans MS;fillColor=#fff2cc;strokeColor=#d6b656;rounded=1;" parent="1" vertex="1">
          <mxGeometry x="162.5" y="-274" width="138" height="20" as="geometry" />
        </mxCell>
        <mxCell id="ILP_Jjc2ablGNtknwulI-172" value="" style="shape=tableRow;horizontal=0;startSize=0;swimlaneHead=0;swimlaneBody=0;strokeColor=#d6b656;top=0;left=0;bottom=0;right=0;collapsible=0;dropTarget=0;fillColor=#fff2cc;points=[[0,0.5],[1,0.5]];portConstraint=eastwest;fontSize=16;fontFamily=Comic Sans MS;" parent="ILP_Jjc2ablGNtknwulI-171" vertex="1">
          <mxGeometry width="138" height="20" as="geometry" />
        </mxCell>
        <mxCell id="ILP_Jjc2ablGNtknwulI-173" value="" style="shape=partialRectangle;html=1;whiteSpace=wrap;connectable=0;strokeColor=#d6b656;overflow=hidden;fillColor=#fff2cc;top=0;left=0;bottom=0;right=0;pointerEvents=1;fontSize=16;fontFamily=Comic Sans MS;" parent="ILP_Jjc2ablGNtknwulI-172" vertex="1">
          <mxGeometry width="28" height="20" as="geometry">
            <mxRectangle width="28" height="20" as="alternateBounds" />
          </mxGeometry>
        </mxCell>
        <mxCell id="ILP_Jjc2ablGNtknwulI-174" value="" style="shape=partialRectangle;html=1;whiteSpace=wrap;connectable=0;overflow=hidden;top=0;left=0;bottom=0;right=0;pointerEvents=1;fontSize=16;fontFamily=Comic Sans MS;" parent="ILP_Jjc2ablGNtknwulI-172" vertex="1">
          <mxGeometry x="28" width="27" height="20" as="geometry">
            <mxRectangle width="27" height="20" as="alternateBounds" />
          </mxGeometry>
        </mxCell>
        <mxCell id="ILP_Jjc2ablGNtknwulI-175" value="" style="shape=partialRectangle;html=1;whiteSpace=wrap;connectable=0;strokeColor=#d6b656;overflow=hidden;fillColor=#fff2cc;top=0;left=0;bottom=0;right=0;pointerEvents=1;fontSize=16;fontFamily=Comic Sans MS;" parent="ILP_Jjc2ablGNtknwulI-172" vertex="1">
          <mxGeometry x="55" width="28" height="20" as="geometry">
            <mxRectangle width="28" height="20" as="alternateBounds" />
          </mxGeometry>
        </mxCell>
        <mxCell id="ILP_Jjc2ablGNtknwulI-176" value="" style="shape=partialRectangle;html=1;whiteSpace=wrap;connectable=0;strokeColor=#d6b656;overflow=hidden;fillColor=#fff2cc;top=0;left=0;bottom=0;right=0;pointerEvents=1;fontSize=16;fontFamily=Comic Sans MS;" parent="ILP_Jjc2ablGNtknwulI-172" vertex="1">
          <mxGeometry x="83" width="27" height="20" as="geometry">
            <mxRectangle width="27" height="20" as="alternateBounds" />
          </mxGeometry>
        </mxCell>
        <mxCell id="ILP_Jjc2ablGNtknwulI-177" value="" style="shape=partialRectangle;html=1;whiteSpace=wrap;connectable=0;strokeColor=#d6b656;overflow=hidden;fillColor=#fff2cc;top=0;left=0;bottom=0;right=0;pointerEvents=1;fontSize=16;fontFamily=Comic Sans MS;" parent="ILP_Jjc2ablGNtknwulI-172" vertex="1">
          <mxGeometry x="110" width="28" height="20" as="geometry">
            <mxRectangle width="28" height="20" as="alternateBounds" />
          </mxGeometry>
        </mxCell>
        <mxCell id="ILP_Jjc2ablGNtknwulI-178" value="&lt;font face=&quot;Comic Sans MS&quot;&gt;header vector&lt;/font&gt;" style="text;html=1;align=center;verticalAlign=middle;resizable=0;points=[];autosize=1;strokeColor=none;fillColor=none;fontSize=16;" parent="1" vertex="1">
          <mxGeometry x="159" y="-315" width="123" height="32" as="geometry" />
        </mxCell>
        <mxCell id="ILP_Jjc2ablGNtknwulI-179" value="&lt;font face=&quot;Comic Sans MS&quot;&gt;payload vectors&lt;/font&gt;" style="text;html=1;align=center;verticalAlign=middle;resizable=0;points=[];autosize=1;strokeColor=none;fillColor=none;fontSize=16;" parent="1" vertex="1">
          <mxGeometry x="162.5" y="-154" width="134" height="32" as="geometry" />
        </mxCell>
        <mxCell id="ILP_Jjc2ablGNtknwulI-180" value="&lt;font face=&quot;Comic Sans MS&quot; style=&quot;font-size: 16px;&quot;&gt;Decoder&lt;br&gt;&lt;/font&gt;" style="rounded=0;whiteSpace=wrap;html=1;fillColor=#dae8fc;strokeColor=#6c8ebf;" parent="1" vertex="1">
          <mxGeometry x="323" y="-344" width="68" height="101" as="geometry" />
        </mxCell>
        <mxCell id="ILP_Jjc2ablGNtknwulI-181" value="&lt;font face=&quot;Comic Sans MS&quot; style=&quot;font-size: 16px;&quot;&gt;Decoder&lt;br&gt;&lt;/font&gt;" style="rounded=0;whiteSpace=wrap;html=1;fillColor=#dae8fc;strokeColor=#6c8ebf;" parent="1" vertex="1">
          <mxGeometry x="323" y="-201" width="66" height="101" as="geometry" />
        </mxCell>
        <mxCell id="ILP_Jjc2ablGNtknwulI-187" value="" style="endArrow=classic;html=1;rounded=0;fontSize=12;edgeStyle=orthogonalEdgeStyle;exitX=0.5;exitY=1;exitDx=0;exitDy=0;entryX=1;entryY=0.5;entryDx=0;entryDy=0;strokeWidth=3;strokeColor=#7EA6E0;" parent="1" source="ILP_Jjc2ablGNtknwulI-147" target="ILP_Jjc2ablGNtknwulI-52" edge="1">
          <mxGeometry width="50" height="50" relative="1" as="geometry">
            <mxPoint x="160" y="-46" as="sourcePoint" />
            <mxPoint x="210" y="-96" as="targetPoint" />
            <Array as="points">
              <mxPoint x="81" y="-218" />
              <mxPoint x="150" y="-218" />
              <mxPoint x="150" y="-12" />
            </Array>
          </mxGeometry>
        </mxCell>
        <mxCell id="ILP_Jjc2ablGNtknwulI-191" value="" style="endArrow=classic;html=1;rounded=0;fontSize=12;edgeStyle=orthogonalEdgeStyle;exitX=0.5;exitY=1;exitDx=0;exitDy=0;entryX=1;entryY=0.5;entryDx=0;entryDy=0;strokeWidth=3;strokeColor=#9AC7BF;" parent="1" edge="1">
          <mxGeometry width="50" height="50" relative="1" as="geometry">
            <mxPoint x="80" y="-99" as="sourcePoint" />
            <mxPoint x="139" y="132" as="targetPoint" />
            <Array as="points">
              <mxPoint x="80" y="-74" />
              <mxPoint x="164" y="-74" />
              <mxPoint x="164" y="132" />
            </Array>
          </mxGeometry>
        </mxCell>
        <mxCell id="ILP_Jjc2ablGNtknwulI-192" style="edgeStyle=none;curved=1;rounded=0;orthogonalLoop=1;jettySize=auto;html=1;exitX=1;exitY=0.5;exitDx=0;exitDy=0;fontSize=12;startSize=8;endSize=8;" parent="1" source="ILP_Jjc2ablGNtknwulI-181" target="ILP_Jjc2ablGNtknwulI-181" edge="1">
          <mxGeometry relative="1" as="geometry" />
        </mxCell>
        <mxCell id="ILP_Jjc2ablGNtknwulI-193" style="edgeStyle=none;curved=1;rounded=0;orthogonalLoop=1;jettySize=auto;html=1;exitX=1;exitY=0.5;exitDx=0;exitDy=0;fontSize=12;startSize=8;endSize=8;" parent="1" source="ILP_Jjc2ablGNtknwulI-181" target="ILP_Jjc2ablGNtknwulI-181" edge="1">
          <mxGeometry relative="1" as="geometry" />
        </mxCell>
        <mxCell id="ILP_Jjc2ablGNtknwulI-194" style="edgeStyle=none;curved=1;rounded=0;orthogonalLoop=1;jettySize=auto;html=1;exitX=1;exitY=0;exitDx=0;exitDy=0;fontSize=12;startSize=8;endSize=8;" parent="1" source="ILP_Jjc2ablGNtknwulI-181" target="ILP_Jjc2ablGNtknwulI-181" edge="1">
          <mxGeometry relative="1" as="geometry" />
        </mxCell>
        <mxCell id="ILP_Jjc2ablGNtknwulI-195" value="&lt;font face=&quot;Comic Sans MS&quot; style=&quot;font-size: 16px;&quot;&gt;IP Header 1&lt;br&gt;IP Header 2&lt;br&gt;...&lt;br&gt;IP Header N&lt;br&gt;&lt;/font&gt;" style="rounded=1;whiteSpace=wrap;html=1;align=center;fillColor=#DED3B1;strokeColor=#d6b656;" parent="1" vertex="1">
          <mxGeometry x="418" y="-347" width="128" height="104" as="geometry" />
        </mxCell>
        <mxCell id="ILP_Jjc2ablGNtknwulI-196" value="&lt;font face=&quot;Comic Sans MS&quot; style=&quot;font-size: 16px;&quot;&gt;Payload1 Line1&lt;br&gt;&lt;/font&gt;&lt;font face=&quot;Comic Sans MS&quot; style=&quot;font-size: 16px;&quot;&gt;Payload2 Line1&lt;br&gt;&lt;/font&gt;&lt;font face=&quot;Comic Sans MS&quot; style=&quot;font-size: 16px;&quot;&gt;...&lt;br&gt;PayloadN Line1&lt;br&gt;&lt;/font&gt;" style="rounded=1;whiteSpace=wrap;html=1;align=center;fillColor=#91d993;strokeColor=#82b366;" parent="1" vertex="1">
          <mxGeometry x="414" y="-219" width="132" height="103" as="geometry" />
        </mxCell>
        <mxCell id="ILP_Jjc2ablGNtknwulI-197" value="&lt;font face=&quot;Comic Sans MS&quot; style=&quot;font-size: 16px;&quot;&gt;Payload1 Line1&lt;br&gt;&lt;/font&gt;&lt;font face=&quot;Comic Sans MS&quot; style=&quot;font-size: 16px;&quot;&gt;Payload2 Line1&lt;br&gt;&lt;/font&gt;&lt;font face=&quot;Comic Sans MS&quot; style=&quot;font-size: 16px;&quot;&gt;...&lt;br&gt;PayloadN Line1&lt;br&gt;&lt;/font&gt;" style="rounded=1;whiteSpace=wrap;html=1;align=center;fillColor=#91d993;strokeColor=#82b366;" parent="1" vertex="1">
          <mxGeometry x="424" y="-209" width="132" height="103" as="geometry" />
        </mxCell>
        <mxCell id="ILP_Jjc2ablGNtknwulI-198" value="&lt;font face=&quot;Comic Sans MS&quot; style=&quot;font-size: 16px;&quot;&gt;Payload1 Line1&lt;br&gt;&lt;/font&gt;&lt;font face=&quot;Comic Sans MS&quot; style=&quot;font-size: 16px;&quot;&gt;Payload2 Line1&lt;br&gt;&lt;/font&gt;&lt;font face=&quot;Comic Sans MS&quot; style=&quot;font-size: 16px;&quot;&gt;...&lt;br&gt;PayloadN Line1&lt;br&gt;&lt;/font&gt;" style="rounded=1;whiteSpace=wrap;html=1;align=center;fillColor=#91d993;strokeColor=#82b366;" parent="1" vertex="1">
          <mxGeometry x="435" y="-195" width="132" height="103" as="geometry" />
        </mxCell>
        <mxCell id="ILP_Jjc2ablGNtknwulI-200" value="" style="shape=curlyBracket;whiteSpace=wrap;html=1;rounded=1;flipH=1;labelPosition=right;verticalLabelPosition=middle;align=left;verticalAlign=middle;rotation=-90;" parent="1" vertex="1">
          <mxGeometry x="178.5" y="-618.5" width="20" height="491" as="geometry" />
        </mxCell>
        <mxCell id="ILP_Jjc2ablGNtknwulI-202" value="&lt;font face=&quot;Comic Sans MS&quot; style=&quot;font-size: 16px;&quot;&gt;Compare&lt;/font&gt;" style="text;html=1;align=center;verticalAlign=middle;resizable=0;points=[];autosize=1;strokeColor=none;fillColor=none;fontSize=16;" parent="1" vertex="1">
          <mxGeometry x="145" y="-421" width="82" height="32" as="geometry" />
        </mxCell>
        <mxCell id="ILP_Jjc2ablGNtknwulI-203" value="&lt;font face=&quot;Comic Sans MS&quot; style=&quot;font-size: 16px;&quot;&gt;Unlabeled Data&lt;/font&gt;" style="rounded=1;whiteSpace=wrap;html=1;fillColor=#e1d5e7;strokeColor=#9673a6;" parent="1" vertex="1">
          <mxGeometry x="-324" y="359" width="120" height="60" as="geometry" />
        </mxCell>
        <mxCell id="ILP_Jjc2ablGNtknwulI-204" value="" style="shape=table;startSize=0;container=1;collapsible=0;childLayout=tableLayout;fontSize=16;fontFamily=Comic Sans MS;fillColor=#e1d5e7;strokeColor=#9673a6;rounded=1;" parent="1" vertex="1">
          <mxGeometry x="-169" y="370" width="204" height="34" as="geometry" />
        </mxCell>
        <mxCell id="ILP_Jjc2ablGNtknwulI-205" value="" style="shape=tableRow;horizontal=0;startSize=0;swimlaneHead=0;swimlaneBody=0;strokeColor=#9673a6;top=0;left=0;bottom=0;right=0;collapsible=0;dropTarget=0;fillColor=#e1d5e7;points=[[0,0.5],[1,0.5]];portConstraint=eastwest;fontSize=16;fontFamily=Comic Sans MS;" parent="ILP_Jjc2ablGNtknwulI-204" vertex="1">
          <mxGeometry width="204" height="34" as="geometry" />
        </mxCell>
        <mxCell id="ILP_Jjc2ablGNtknwulI-206" value="1540" style="shape=partialRectangle;html=1;whiteSpace=wrap;connectable=0;strokeColor=#9673a6;overflow=hidden;fillColor=#e1d5e7;top=0;left=0;bottom=0;right=0;pointerEvents=1;fontSize=16;fontFamily=Comic Sans MS;" parent="ILP_Jjc2ablGNtknwulI-205" vertex="1">
          <mxGeometry width="41" height="34" as="geometry">
            <mxRectangle width="41" height="34" as="alternateBounds" />
          </mxGeometry>
        </mxCell>
        <mxCell id="ILP_Jjc2ablGNtknwulI-207" value="40" style="shape=partialRectangle;html=1;whiteSpace=wrap;connectable=0;strokeColor=#9673a6;overflow=hidden;fillColor=#e1d5e7;top=0;left=0;bottom=0;right=0;pointerEvents=1;fontSize=16;fontFamily=Comic Sans MS;" parent="ILP_Jjc2ablGNtknwulI-205" vertex="1">
          <mxGeometry x="41" width="41" height="34" as="geometry">
            <mxRectangle width="41" height="34" as="alternateBounds" />
          </mxGeometry>
        </mxCell>
        <mxCell id="ILP_Jjc2ablGNtknwulI-208" value="1200" style="shape=partialRectangle;html=1;whiteSpace=wrap;connectable=0;strokeColor=#9673a6;overflow=hidden;fillColor=#e1d5e7;top=0;left=0;bottom=0;right=0;pointerEvents=1;fontSize=16;fontFamily=Comic Sans MS;" parent="ILP_Jjc2ablGNtknwulI-205" vertex="1">
          <mxGeometry x="82" width="40" height="34" as="geometry">
            <mxRectangle width="40" height="34" as="alternateBounds" />
          </mxGeometry>
        </mxCell>
        <mxCell id="ILP_Jjc2ablGNtknwulI-209" value="...." style="shape=partialRectangle;html=1;whiteSpace=wrap;connectable=0;strokeColor=#9673a6;overflow=hidden;fillColor=#e1d5e7;top=0;left=0;bottom=0;right=0;pointerEvents=1;fontSize=16;fontFamily=Comic Sans MS;" parent="ILP_Jjc2ablGNtknwulI-205" vertex="1">
          <mxGeometry x="122" width="41" height="34" as="geometry">
            <mxRectangle width="41" height="34" as="alternateBounds" />
          </mxGeometry>
        </mxCell>
        <mxCell id="ILP_Jjc2ablGNtknwulI-210" value="40" style="shape=partialRectangle;html=1;whiteSpace=wrap;connectable=0;strokeColor=#9673a6;overflow=hidden;fillColor=#e1d5e7;top=0;left=0;bottom=0;right=0;pointerEvents=1;fontSize=16;fontFamily=Comic Sans MS;" parent="ILP_Jjc2ablGNtknwulI-205" vertex="1">
          <mxGeometry x="163" width="41" height="34" as="geometry">
            <mxRectangle width="41" height="34" as="alternateBounds" />
          </mxGeometry>
        </mxCell>
        <mxCell id="ILP_Jjc2ablGNtknwulI-211" style="edgeStyle=none;curved=1;rounded=0;orthogonalLoop=1;jettySize=auto;html=1;exitX=1;exitY=0.5;exitDx=0;exitDy=0;entryX=0;entryY=0.5;entryDx=0;entryDy=0;fontSize=12;startSize=8;endSize=8;fillColor=#f8cecc;strokeColor=#b85450;" parent="1" source="ILP_Jjc2ablGNtknwulI-212" target="ILP_Jjc2ablGNtknwulI-215" edge="1">
          <mxGeometry relative="1" as="geometry" />
        </mxCell>
        <mxCell id="ILP_Jjc2ablGNtknwulI-212" value="" style="ellipse;whiteSpace=wrap;html=1;aspect=fixed;fillColor=#f8cecc;strokeColor=#b85450;" parent="1" vertex="1">
          <mxGeometry x="71" y="367" width="15" height="15" as="geometry" />
        </mxCell>
        <mxCell id="ILP_Jjc2ablGNtknwulI-213" style="edgeStyle=none;curved=1;rounded=0;orthogonalLoop=1;jettySize=auto;html=1;exitX=0;exitY=0.5;exitDx=0;exitDy=0;entryX=1;entryY=0;entryDx=0;entryDy=0;fontSize=12;startSize=8;endSize=8;fillColor=#f8cecc;strokeColor=#b85450;" parent="1" source="ILP_Jjc2ablGNtknwulI-215" target="ILP_Jjc2ablGNtknwulI-217" edge="1">
          <mxGeometry relative="1" as="geometry" />
        </mxCell>
        <mxCell id="ILP_Jjc2ablGNtknwulI-214" style="edgeStyle=none;curved=1;rounded=0;orthogonalLoop=1;jettySize=auto;html=1;exitX=0.5;exitY=1;exitDx=0;exitDy=0;fontSize=12;startSize=8;endSize=8;fillColor=#f8cecc;strokeColor=#b85450;" parent="1" source="ILP_Jjc2ablGNtknwulI-215" edge="1">
          <mxGeometry relative="1" as="geometry">
            <mxPoint x="132" y="403.79998779296875" as="targetPoint" />
          </mxGeometry>
        </mxCell>
        <mxCell id="ILP_Jjc2ablGNtknwulI-215" value="" style="ellipse;whiteSpace=wrap;html=1;aspect=fixed;fillColor=#f8cecc;strokeColor=#b85450;" parent="1" vertex="1">
          <mxGeometry x="116" y="357" width="28" height="28" as="geometry" />
        </mxCell>
        <mxCell id="ILP_Jjc2ablGNtknwulI-216" value="" style="ellipse;whiteSpace=wrap;html=1;aspect=fixed;fillColor=#f8cecc;strokeColor=#b85450;" parent="1" vertex="1">
          <mxGeometry x="122" y="404" width="18" height="18" as="geometry" />
        </mxCell>
        <mxCell id="ILP_Jjc2ablGNtknwulI-217" value="" style="ellipse;whiteSpace=wrap;html=1;aspect=fixed;fillColor=#f8cecc;strokeColor=#b85450;" parent="1" vertex="1">
          <mxGeometry x="74" y="401" width="15" height="15" as="geometry" />
        </mxCell>
        <mxCell id="ILP_Jjc2ablGNtknwulI-220" style="edgeStyle=none;curved=1;rounded=0;orthogonalLoop=1;jettySize=auto;html=1;fontSize=12;startSize=8;endSize=8;strokeWidth=3;strokeColor=#C3ABD0;" parent="1" source="ILP_Jjc2ablGNtknwulI-219" edge="1">
          <mxGeometry relative="1" as="geometry">
            <mxPoint x="225.5" y="308.39996337890625" as="targetPoint" />
          </mxGeometry>
        </mxCell>
        <mxCell id="ILP_Jjc2ablGNtknwulI-219" value="&lt;font face=&quot;Comic Sans MS&quot; style=&quot;font-size: 16px;&quot;&gt;Node2Vec&lt;/font&gt;" style="whiteSpace=wrap;html=1;aspect=fixed;fillColor=#dae8fc;strokeColor=#6c8ebf;" parent="1" vertex="1">
          <mxGeometry x="181.5" y="354" width="88" height="88" as="geometry" />
        </mxCell>
        <mxCell id="ILP_Jjc2ablGNtknwulI-221" style="edgeStyle=none;curved=1;rounded=0;orthogonalLoop=1;jettySize=auto;html=1;exitX=1;exitY=0.5;exitDx=0;exitDy=0;fontSize=12;startSize=8;endSize=8;" parent="1" source="ILP_Jjc2ablGNtknwulI-205" edge="1">
          <mxGeometry relative="1" as="geometry">
            <mxPoint x="66.00006103515625" y="387" as="targetPoint" />
          </mxGeometry>
        </mxCell>
        <mxCell id="ILP_Jjc2ablGNtknwulI-222" style="edgeStyle=none;curved=1;rounded=0;orthogonalLoop=1;jettySize=auto;html=1;fontSize=12;startSize=8;endSize=8;" parent="1" edge="1">
          <mxGeometry relative="1" as="geometry">
            <mxPoint x="180.800048828125" y="393" as="targetPoint" />
            <mxPoint x="138" y="393" as="sourcePoint" />
          </mxGeometry>
        </mxCell>
      </root>
    </mxGraphModel>
  </diagram>
</mxfile>
